<svg width="62" height="72" viewBox="0 0 62 72" fill="none" xmlns="http://www.w3.org/2000/svg">
<path d="M61.6814 18.6723L31.0253 0.972961L0.369141 18.6723V54.0709L31.0253 71.7703L61.6814 54.0709V18.6723Z" fill="#1644F5"/>
<path d="M46.1642 21.2326C43.1271 18.1954 39.2575 16.1271 35.0448 15.2891C30.8321 14.4512 26.4656 14.8813 22.4973 16.525C18.529 18.1687 15.1373 20.9522 12.751 24.5235C10.3647 28.0949 9.09106 32.2936 9.09106 36.5888C9.09107 40.884 10.3647 45.0828 12.751 48.6541C15.1373 52.2255 18.5291 55.009 22.4973 56.6527C26.4656 58.2964 30.8321 58.7265 35.0448 57.8885C39.2575 57.0505 43.1271 54.9822 46.1642 51.945L37.3636 43.1444C36.067 44.4409 34.4151 45.3239 32.6167 45.6816C30.8183 46.0394 28.9542 45.8558 27.2602 45.1541C25.5661 44.4524 24.1182 43.2641 23.0995 41.7395C22.0808 40.2149 21.5371 38.4224 21.5371 36.5888C21.5371 34.7552 22.0808 32.9628 23.0995 31.4382C24.1182 29.9136 25.5661 28.7253 27.2602 28.0236C28.9542 27.3219 30.8183 27.1383 32.6167 27.496C34.4151 27.8537 36.067 28.7367 37.3636 30.0333L46.1642 21.2326Z" fill="white"/>
<path d="M34.4405 42.6693H32.5187V40.1984H34.4405V38.0021H37.1858V40.1984H39.1076V42.6693H37.1858V44.8656H34.4405V42.6693ZM44.4096 42.6693H42.4879V40.1984H44.4096V38.0021H47.155V40.1984H49.0768V42.6693H47.155V44.8656H44.4096V42.6693Z" fill="white"/>
</svg>
